<svg width="32" height="32" viewBox="0 0 32 32" fill="none" xmlns="http://www.w3.org/2000/svg">
<path d="M23.4666 6.66699C24.2828 6.66695 25.0682 6.97881 25.6621 7.53876C26.2559 8.09872 26.6134 8.86444 26.6613 9.67926L26.6666 9.86699V20.5337C26.6666 21.3499 26.3548 22.1353 25.7948 22.7291C25.2349 23.323 24.4691 23.6804 23.6543 23.7283L23.4666 23.7337H19.5231L16.7391 25.5897C16.5427 25.7205 16.3151 25.7968 16.0795 25.8108C15.844 25.8249 15.6089 25.7762 15.3983 25.6697L15.2597 25.5897L12.4778 23.7337H8.53325C7.71703 23.7337 6.93164 23.4218 6.33777 22.8619C5.74391 22.3019 5.38647 21.5362 5.33859 20.7214L5.33325 20.5337V9.86699C5.33321 9.05077 5.64507 8.26538 6.20502 7.67151C6.76498 7.07765 7.5307 6.72021 8.34552 6.67233L8.53325 6.66699H23.4666ZM23.4666 8.80033H8.53325C8.27199 8.80036 8.01983 8.89628 7.82459 9.06989C7.62935 9.2435 7.50462 9.48272 7.47405 9.74219L7.46659 9.86699V20.5337C7.46662 20.7949 7.56254 21.0471 7.73615 21.2423C7.90976 21.4376 8.14898 21.5623 8.40845 21.5929L8.53325 21.6003H12.4767C12.8367 21.6003 13.1907 21.6913 13.5061 21.8649L13.6607 21.9587L15.9999 23.5182L18.3391 21.9587C18.6387 21.7589 18.984 21.6382 19.3429 21.6078L19.5231 21.6003H23.4666C23.7278 21.6003 23.98 21.5044 24.1752 21.3308C24.3705 21.1572 24.4952 20.9179 24.5258 20.6585L24.5333 20.5337V9.86699C24.5332 9.60573 24.4373 9.35357 24.2637 9.15833C24.0901 8.96309 23.8509 8.83836 23.5914 8.80779L23.4666 8.80033ZM12.2666 14.1337C12.6909 14.1337 13.0979 14.3022 13.398 14.6023C13.698 14.9023 13.8666 15.3093 13.8666 15.7337C13.8666 16.158 13.698 16.565 13.398 16.865C13.0979 17.1651 12.6909 17.3337 12.2666 17.3337C11.8422 17.3337 11.4353 17.1651 11.1352 16.865C10.8352 16.565 10.6666 16.158 10.6666 15.7337C10.6666 15.3093 10.8352 14.9023 11.1352 14.6023C11.4353 14.3022 11.8422 14.1337 12.2666 14.1337ZM19.7333 14.1337C20.1576 14.1337 20.5646 14.3022 20.8646 14.6023C21.1647 14.9023 21.3333 15.3093 21.3333 15.7337C21.3333 16.158 21.1647 16.565 20.8646 16.865C20.5646 17.1651 20.1576 17.3337 19.7333 17.3337C19.3089 17.3337 18.9019 17.1651 18.6019 16.865C18.3018 16.565 18.1333 16.158 18.1333 15.7337C18.1333 15.3093 18.3018 14.9023 18.6019 14.6023C18.9019 14.3022 19.3089 14.1337 19.7333 14.1337Z" fill="white"/>
</svg>
