<svg aria-hidden="true" style="position: absolute; width: 0; height: 0; overflow: hidden;" version="1.1" xmlns="http://www.w3.org/2000/svg" xmlns:xlink="http://www.w3.org/1999/xlink">
<defs>
<symbol id="icon-message" viewBox="0 0 32 32">
<path  d="M23.467 6.667c0.816-0 1.602 0.312 2.195 0.872s0.951 1.326 0.999 2.14l0.005 0.188v10.667c0 0.816-0.312 1.602-0.872 2.195s-1.326 0.951-2.14 0.999l-0.188 0.005h-3.944l-2.784 1.856c-0.196 0.131-0.424 0.207-0.66 0.221s-0.471-0.035-0.681-0.141l-0.139-0.080-2.782-1.856h-3.945c-0.816 0-1.602-0.312-2.195-0.872s-0.951-1.326-0.999-2.14l-0.005-0.188v-10.667c-0-0.816 0.312-1.602 0.872-2.195s1.326-0.951 2.14-0.999l0.188-0.005h14.933zM23.467 8.8h-14.933c-0.261 0-0.513 0.096-0.709 0.27s-0.32 0.413-0.351 0.672l-0.007 0.125v10.667c0 0.261 0.096 0.513 0.27 0.709s0.413 0.32 0.672 0.351l0.125 0.008h3.943c0.36-0 0.714 0.091 1.029 0.265l0.155 0.094 2.339 1.559 2.339-1.559c0.3-0.2 0.645-0.321 1.004-0.351l0.18-0.007h3.944c0.261-0 0.513-0.096 0.709-0.27s0.32-0.413 0.351-0.672l0.007-0.125v-10.667c0-0.261-0.096-0.513-0.27-0.709s-0.413-0.32-0.672-0.351l-0.125-0.007zM12.267 14.133c0.424 0 0.831 0.169 1.131 0.469s0.469 0.707 0.469 1.131c0 0.424-0.169 0.831-0.469 1.131s-0.707 0.469-1.131 0.469c-0.424 0-0.831-0.169-1.131-0.469s-0.469-0.707-0.469-1.131c0-0.424 0.168-0.831 0.469-1.131s0.707-0.469 1.131-0.469zM19.733 14.133c0.424 0 0.831 0.169 1.131 0.469s0.469 0.707 0.469 1.131c0 0.424-0.169 0.831-0.469 1.131s-0.707 0.469-1.131 0.469c-0.424 0-0.831-0.169-1.131-0.469s-0.469-0.707-0.469-1.131c0-0.424 0.169-0.831 0.469-1.131s0.707-0.469 1.131-0.469z"></path>
</symbol>
<symbol id="icon-youtube" viewBox="0 0 31 32">
<path  d="M13.388 18.527l5.345-3.090-5.345-3.090v6.179zM25.294 10.464c0.134 0.484 0.226 1.132 0.288 1.956 0.072 0.824 0.103 1.534 0.103 2.152l0.062 0.866c0 2.255-0.164 3.914-0.452 4.974-0.258 0.927-0.855 1.524-1.782 1.781-0.484 0.135-1.369 0.227-2.729 0.289-1.102 0.064-2.393 0.102-3.693 0.103h-0.003l-1.639 0.062c-4.314 0-7.004-0.166-8.064-0.452-0.927-0.258-1.524-0.855-1.782-1.782-0.132-0.484-0.226-1.133-0.288-1.956-0.062-0.641-0.099-1.39-0.103-2.147l-0-0.006-0.062-0.865c0-2.255 0.164-3.914 0.452-4.974 0.258-0.927 0.855-1.524 1.782-1.782 0.484-0.134 1.369-0.226 2.729-0.288 1.102-0.064 2.394-0.102 3.695-0.103h0.003l1.638-0.062c4.314 0 7.004 0.164 8.064 0.452 0.927 0.258 1.524 0.855 1.782 1.782z"></path>
</symbol>
<symbol id="icon-telegram" viewBox="0 0 31 32">
<path  d="M15.448 5.654c-5.685 0-10.298 4.615-10.298 10.3s4.614 10.298 10.298 10.298 10.298-4.614 10.298-10.298-4.612-10.3-10.298-10.3zM20.226 12.658c-0.154 1.628-0.823 5.582-1.163 7.404-0.143 0.772-0.433 1.031-0.701 1.062-0.597 0.052-1.050-0.392-1.626-0.772-0.907-0.597-1.421-0.968-2.297-1.545-1.020-0.67-0.36-1.041 0.227-1.638 0.154-0.154 2.792-2.554 2.842-2.77 0.003-0.013 0.005-0.029 0.005-0.044 0-0.055-0.022-0.105-0.057-0.142l0 0c-0.062-0.051-0.143-0.031-0.216-0.020-0.093 0.020-1.534 0.978-4.346 2.873-0.412 0.278-0.782 0.422-1.112 0.412-0.371-0.011-1.070-0.206-1.596-0.381-0.649-0.206-1.154-0.32-1.112-0.68 0.020-0.185 0.278-0.371 0.761-0.567 3.008-1.308 5.005-2.174 6.005-2.584 2.862-1.195 3.449-1.401 3.841-1.401 0.083 0 0.278 0.021 0.402 0.124 0.080 0.068 0.134 0.166 0.143 0.277l0 0.002c-0.010 0.062 0.011 0.247 0 0.392z"></path>
</symbol>
<symbol id="icon-linkedin" viewBox="0 0 31 32">
<path  d="M23.459 5.654c1.263 0.001 2.287 1.025 2.287 2.289v0 16.021c0 1.264-1.025 2.289-2.289 2.289v0h-16.020c-1.264 0-2.289-1.025-2.289-2.289v0-16.021c0-1.264 1.024-2.288 2.287-2.289h16.020zM22.886 23.391v-6.065c0-2.060-1.67-3.73-3.73-3.73v0c-0.972 0-2.105 0.595-2.655 1.487v-1.271h-3.192v9.578h3.192v-5.641c0-0.882 0.71-1.602 1.591-1.602 0.884 0.001 1.601 0.718 1.601 1.602 0 0 0 0 0 0v0 5.641h3.193zM9.589 12.017c0 0 0.001 0 0.001 0 1.062 0 1.922-0.861 1.922-1.922v0c0-1.064-0.858-1.934-1.923-1.934-1.068 0.001-1.933 0.866-1.933 1.934v0c0 1.064 0.87 1.922 1.933 1.922zM11.18 23.391v-9.578h-3.17v9.578h3.17z"></path>
</symbol>
<symbol id="icon-instagram" viewBox="0 0 31 32">
<path  d="M15.448 5.654c-2.795 0-3.146 0.013-4.244 0.062-1.099 0.052-1.846 0.224-2.502 0.479-0.714 0.273-1.322 0.677-1.823 1.188l-0.001 0.001c-0.511 0.502-0.915 1.11-1.177 1.789l-0.012 0.035c-0.255 0.654-0.429 1.404-0.479 2.498-0.050 1.1-0.062 1.45-0.062 4.248 0 2.797 0.012 3.147 0.062 4.245 0.051 1.097 0.224 1.845 0.479 2.5 0.264 0.678 0.615 1.251 1.188 1.824 0.572 0.574 1.145 0.926 1.823 1.188 0.657 0.254 1.402 0.428 2.499 0.479 1.1 0.049 1.45 0.062 4.248 0.062 2.796 0 3.145-0.013 4.245-0.062 1.096-0.052 1.846-0.224 2.502-0.479 0.713-0.273 1.322-0.677 1.822-1.188l0.001-0.001c0.573-0.574 0.924-1.148 1.187-1.824 0.254-0.655 0.428-1.404 0.479-2.5 0.050-1.098 0.062-1.448 0.062-4.245 0-2.798-0.012-3.148-0.062-4.248-0.051-1.095-0.225-1.844-0.479-2.498-0.273-0.714-0.677-1.322-1.187-1.823l-0.001-0.001c-0.502-0.511-1.111-0.916-1.791-1.177l-0.034-0.012c-0.657-0.254-1.406-0.428-2.502-0.479-1.099-0.049-1.448-0.062-4.246-0.062h0.002zM14.526 7.511h0.922c2.75 0 3.075 0.009 4.16 0.058 1.004 0.045 1.55 0.214 1.914 0.354 0.48 0.188 0.823 0.41 1.184 0.771s0.583 0.703 0.77 1.184c0.141 0.362 0.309 0.908 0.353 1.912 0.051 1.085 0.061 1.41 0.061 4.16 0 2.748-0.011 3.074-0.061 4.16-0.044 1.004-0.213 1.548-0.353 1.911-0.166 0.448-0.429 0.852-0.772 1.184-0.324 0.333-0.72 0.595-1.162 0.762l-0.022 0.007c-0.36 0.142-0.905 0.309-1.911 0.355-1.086 0.050-1.411 0.061-4.16 0.061-2.751 0-3.079-0.011-4.163-0.061-1.004-0.046-1.548-0.213-1.911-0.355-0.464-0.174-0.86-0.436-1.183-0.768l-0.001-0.001c-0.334-0.324-0.598-0.72-0.765-1.163l-0.007-0.022c-0.141-0.362-0.309-0.907-0.354-1.911-0.050-1.086-0.060-1.411-0.060-4.162 0-2.75 0.011-3.074 0.060-4.16 0.046-1.004 0.213-1.549 0.355-1.912 0.186-0.48 0.41-0.824 0.771-1.185 0.324-0.333 0.72-0.595 1.162-0.762l0.022-0.007c0.363-0.142 0.907-0.309 1.911-0.355 0.95-0.044 1.319-0.057 3.239-0.058v0.003zM20.947 9.22c-0.683 0-1.236 0.553-1.236 1.236s0.553 1.236 1.236 1.236v0c0.683 0 1.236-0.553 1.236-1.236s-0.553-1.236-1.236-1.236v0zM15.448 10.665c-0.045-0.001-0.099-0.002-0.152-0.002-2.922 0-5.29 2.368-5.29 5.29 0 2.917 2.361 5.282 5.276 5.29h0.001c0.004 0 0.009 0 0.013 0 2.922 0 5.29-2.368 5.29-5.29 0-2.868-2.282-5.203-5.13-5.288l-0.008-0zM15.448 12.52c0.018-0 0.040-0.001 0.062-0.001 1.896 0 3.434 1.537 3.434 3.434s-1.537 3.434-3.434 3.434c-0.022 0-0.043-0-0.065-0.001l0.003 0c-1.87-0.035-3.372-1.558-3.372-3.433s1.503-3.399 3.369-3.433l0.003-0z"></path>
</symbol>
<symbol id="icon-facebook" viewBox="0 0 31 32">
<path  d="M25.747 15.979c0-5.699-4.612-10.325-10.298-10.325-5.685 0-10.298 4.626-10.298 10.325 0 0.001 0 0.003 0 0.004 0 4.964 3.502 9.11 8.171 10.103l0.068 0.012v-7.021h-2.059v-3.097h2.059v-2.582c0.001-1.992 1.613-3.607 3.605-3.612h2.575v3.097h-2.059c-0.569 0.002-1.030 0.463-1.031 1.033v2.065h3.090v3.097h-3.090v7.176c5.202-0.516 9.269-4.915 9.269-10.273z"></path>
</symbol>
<symbol id="icon-arrow-right" viewBox="0 0 32 32">
<path fill="none" stroke="#fff" style="stroke: var(--color1, #fff)" stroke-linejoin="round" stroke-linecap="round" stroke-miterlimit="4" stroke-width="2" d="M5.333 16h21.333M26.667 16l-8-8M26.667 16l-8 8"></path>
</symbol>
<symbol id="icon-arrow-left" viewBox="0 0 32 32">
<path fill="none" stroke="#fff" style="stroke: var(--color1, #fff)" stroke-linejoin="round" stroke-linecap="round" stroke-miterlimit="4" stroke-width="2" d="M26.667 16h-21.333M5.333 16l8-8M5.333 16l8 8"></path>
</symbol>
<symbol id="icon-modal-close" viewBox="0 0 32 32">
<path fill="#fff" style="fill: var(--color1, #fff)" d="M31.394 3.532c0.357-0.371 0.578-0.877 0.578-1.434 0-1.142-0.926-2.068-2.068-2.068-0.556 0-1.061 0.219-1.432 0.576l0.001-0.001-12.472 12.472-12.468-12.472c-0.378-0.402-0.914-0.653-1.509-0.653-1.143 0-2.070 0.927-2.070 2.070 0 0.594 0.25 1.13 0.652 1.508l0.001 0.001 12.472 12.468-12.472 12.468c-0.348 0.369-0.561 0.868-0.561 1.417 0 1.143 0.927 2.070 2.070 2.070 0.549 0 1.048-0.214 1.418-0.562l-0.001 0.001 12.468-12.472 12.472 12.472c0.371 0.356 0.876 0.576 1.432 0.576 1.142 0 2.068-0.926 2.068-2.068 0-0.557-0.22-1.062-0.578-1.434l0.001 0.001-12.472-12.468 12.472-12.468z"></path>
</symbol>
<symbol id="icon-burger" viewBox="0 0 32 32">
<path fill="#fff" style="fill: var(--color1, #fff)" d="M5.334 9.523c0-0.841 0.682-1.523 1.523-1.523h18.286c0.842 0 1.524 0.682 1.524 1.524s-0.682 1.524-1.524 1.524v0h-18.286c-0.841 0-1.523-0.682-1.523-1.523 0-0 0-0.001 0-0.001v0zM5.334 15.619c0-0.842 0.682-1.525 1.523-1.525h18.286c0.842 0 1.524 0.682 1.524 1.524s-0.682 1.524-1.524 1.524v0h-18.286c-0.841 0-1.523-0.682-1.523-1.523v0zM5.334 21.714c0-0.841 0.682-1.523 1.523-1.523h18.286c0.841 0 1.523 0.682 1.523 1.523s-0.682 1.523-1.523 1.523h-18.286c-0.841 0-1.523-0.682-1.523-1.523v0z"></path>
</symbol>
</defs>
</svg>
