<svg aria-hidden="true" style="position: absolute; width: 0; height: 0; overflow: hidden;" version="1.1" xmlns="http://www.w3.org/2000/svg" xmlns:xlink="http://www.w3.org/1999/xlink">
<defs>
<symbol id="icon-arrow-right" viewBox="0 0 32 32">
<path fill="none" stroke="#fff" style="stroke: var(--color1, #fff)" stroke-linejoin="round" stroke-linecap="round" stroke-miterlimit="4" stroke-width="2" d="M5.333 16h21.333M26.667 16l-8-8M26.667 16l-8 8"></path>
</symbol>
<symbol id="icon-arrow-left" viewBox="0 0 32 32">
<path fill="none" stroke="#fff" style="stroke: var(--color1, #fff)" stroke-linejoin="round" stroke-linecap="round" stroke-miterlimit="4" stroke-width="2" d="M26.667 16h-21.333M5.333 16l8-8M5.333 16l8 8"></path>
</symbol>
<symbol id="icon-modal-close" viewBox="0 0 32 32">
<path fill="#fff" style="fill: var(--color1, #fff)" d="M31.394 3.532c0.357-0.371 0.578-0.877 0.578-1.434 0-1.142-0.926-2.068-2.068-2.068-0.556 0-1.061 0.219-1.432 0.576l0.001-0.001-12.472 12.472-12.468-12.472c-0.378-0.402-0.914-0.653-1.509-0.653-1.143 0-2.070 0.927-2.070 2.070 0 0.594 0.25 1.13 0.652 1.508l0.001 0.001 12.472 12.468-12.472 12.468c-0.348 0.369-0.561 0.868-0.561 1.417 0 1.143 0.927 2.070 2.070 2.070 0.549 0 1.048-0.214 1.418-0.562l-0.001 0.001 12.468-12.472 12.472 12.472c0.371 0.356 0.876 0.576 1.432 0.576 1.142 0 2.068-0.926 2.068-2.068 0-0.557-0.22-1.062-0.578-1.434l0.001 0.001-12.472-12.468 12.472-12.468z"></path>
</symbol>
<symbol id="icon-burger" viewBox="0 0 32 32">
<path fill="#fff" style="fill: var(--color1, #fff)" d="M5.334 9.523c0-0.841 0.682-1.523 1.523-1.523h18.286c0.842 0 1.524 0.682 1.524 1.524s-0.682 1.524-1.524 1.524v0h-18.286c-0.841 0-1.523-0.682-1.523-1.523 0-0 0-0.001 0-0.001v0zM5.334 15.619c0-0.842 0.682-1.525 1.523-1.525h18.286c0.842 0 1.524 0.682 1.524 1.524s-0.682 1.524-1.524 1.524v0h-18.286c-0.841 0-1.523-0.682-1.523-1.523v0zM5.334 21.714c0-0.841 0.682-1.523 1.523-1.523h18.286c0.841 0 1.523 0.682 1.523 1.523s-0.682 1.523-1.523 1.523h-18.286c-0.841 0-1.523-0.682-1.523-1.523v0z"></path>
</symbol>
</defs>
</svg>
