<svg width="28" height="29" viewBox="0 0 28 29" fill="none" xmlns="http://www.w3.org/2000/svg">
<path d="M14.0001 5.12427C11.4672 5.12427 11.1487 5.13593 10.1536 5.18027C9.15838 5.22693 8.48055 5.38327 7.88672 5.61427C7.26383 5.84856 6.69962 6.21606 6.23355 6.6911C5.75881 7.15741 5.39134 7.72155 5.15672 8.34427C4.92572 8.93693 4.76822 9.61593 4.72272 10.6076C4.67838 11.6051 4.66672 11.9224 4.66672 14.4588C4.66672 16.9928 4.67838 17.3101 4.72272 18.3053C4.76938 19.2993 4.92572 19.9771 5.15672 20.5709C5.39588 21.1846 5.71438 21.7049 6.23355 22.2241C6.75155 22.7433 7.27188 23.0629 7.88555 23.3009C8.48055 23.5319 9.15722 23.6894 10.1512 23.7349C11.1476 23.7793 11.4649 23.7909 14.0001 23.7909C16.5352 23.7909 16.8514 23.7793 17.8477 23.7349C18.8406 23.6883 19.5207 23.5319 20.1146 23.3009C20.737 23.0665 21.3008 22.699 21.7666 22.2241C22.2857 21.7049 22.6042 21.1846 22.8434 20.5709C23.0732 19.9771 23.2307 19.2993 23.2774 18.3053C23.3217 17.3101 23.3334 16.9928 23.3334 14.4576C23.3334 11.9224 23.3217 11.6051 23.2774 10.6088C23.2307 9.61593 23.0732 8.93693 22.8434 8.34427C22.6088 7.72153 22.2413 7.15739 21.7666 6.6911C21.3006 6.21589 20.7364 5.84835 20.1134 5.61427C19.5184 5.38327 18.8394 5.22577 17.8465 5.18027C16.8502 5.13593 16.5341 5.12427 13.9977 5.12427H14.0012H14.0001ZM13.1636 6.8066H14.0012C16.4932 6.8066 16.7884 6.81477 17.7719 6.86027C18.6819 6.9011 19.1765 7.05393 19.5056 7.1811C19.9407 7.35027 20.2522 7.55327 20.5789 7.87993C20.9056 8.2066 21.1074 8.51693 21.2766 8.95327C21.4049 9.2811 21.5566 9.77577 21.5974 10.6858C21.6429 11.6693 21.6522 11.9644 21.6522 14.4553C21.6522 16.9461 21.6429 17.2424 21.5974 18.2259C21.5566 19.1359 21.4037 19.6294 21.2766 19.9584C21.1269 20.3637 20.8881 20.7301 20.5777 21.0306C20.251 21.3573 19.9407 21.5591 19.5044 21.7283C19.1777 21.8566 18.6831 22.0083 17.7719 22.0503C16.7884 22.0946 16.4932 22.1051 14.0012 22.1051C11.5092 22.1051 11.2129 22.0946 10.2294 22.0503C9.31938 22.0083 8.82588 21.8566 8.49688 21.7283C8.09147 21.5788 7.7247 21.3404 7.42355 21.0306C7.11293 20.7296 6.87373 20.3629 6.72355 19.9573C6.59638 19.6294 6.44355 19.1348 6.40272 18.2248C6.35838 17.2413 6.34905 16.9461 6.34905 14.4529C6.34905 11.9609 6.35838 11.6669 6.40272 10.6834C6.44472 9.77343 6.59638 9.27877 6.72472 8.94977C6.89388 8.5146 7.09688 8.2031 7.42355 7.87643C7.75022 7.54977 8.06055 7.34793 8.49688 7.17877C8.82588 7.05043 9.31938 6.89877 10.2294 6.85677C11.0904 6.8171 11.4241 6.80543 13.1636 6.80427V6.8066ZM18.9829 8.35593C18.8358 8.35593 18.6902 8.3849 18.5543 8.44119C18.4184 8.49747 18.2949 8.57997 18.1909 8.68397C18.0869 8.78798 18.0044 8.91144 17.9481 9.04733C17.8919 9.18321 17.8629 9.32885 17.8629 9.47593C17.8629 9.62301 17.8919 9.76865 17.9481 9.90454C18.0044 10.0404 18.0869 10.1639 18.1909 10.2679C18.2949 10.3719 18.4184 10.4544 18.5543 10.5107C18.6902 10.567 18.8358 10.5959 18.9829 10.5959C19.2799 10.5959 19.5648 10.4779 19.7748 10.2679C19.9849 10.0579 20.1029 9.77298 20.1029 9.47593C20.1029 9.17889 19.9849 8.89402 19.7748 8.68397C19.5648 8.47393 19.2799 8.35593 18.9829 8.35593ZM14.0012 9.66493C13.3655 9.65502 12.7341 9.77167 12.1439 10.0081C11.5536 10.2445 11.0163 10.596 10.5632 11.0421C10.1101 11.4882 9.75031 12.0199 9.5047 12.6064C9.25909 13.1929 9.1326 13.8224 9.1326 14.4582C9.1326 15.094 9.25909 15.7235 9.5047 16.31C9.75031 16.8964 10.1101 17.4282 10.5632 17.8743C11.0163 18.3204 11.5536 18.6718 12.1439 18.9083C12.7341 19.1447 13.3655 19.2614 14.0012 19.2514C15.2595 19.2318 16.4596 18.7182 17.3425 17.8214C18.2254 16.9246 18.7203 15.7166 18.7203 14.4582C18.7203 13.1997 18.2254 11.9917 17.3425 11.095C16.4596 10.1982 15.2595 9.68457 14.0012 9.66493ZM14.0012 11.3461C14.8264 11.3461 15.6179 11.6739 16.2014 12.2574C16.7849 12.841 17.1127 13.6324 17.1127 14.4576C17.1127 15.2828 16.7849 16.0742 16.2014 16.6578C15.6179 17.2413 14.8264 17.5691 14.0012 17.5691C13.176 17.5691 12.3846 17.2413 11.8011 16.6578C11.2175 16.0742 10.8897 15.2828 10.8897 14.4576C10.8897 13.6324 11.2175 12.841 11.8011 12.2574C12.3846 11.6739 13.176 11.3461 14.0012 11.3461Z" fill="white"/>
</svg>
