<svg width="28" height="29" viewBox="0 0 28 29" fill="none" xmlns="http://www.w3.org/2000/svg">
<path d="M21.2593 5.12427C21.8094 5.12427 22.337 5.34279 22.7259 5.73175C23.1149 6.12071 23.3334 6.64826 23.3334 7.19834V21.7169C23.3334 22.2669 23.1149 22.7945 22.7259 23.1835C22.337 23.5724 21.8094 23.7909 21.2593 23.7909H6.74082C6.19074 23.7909 5.66319 23.5724 5.27423 23.1835C4.88527 22.7945 4.66675 22.2669 4.66675 21.7169V7.19834C4.66675 6.64826 4.88527 6.12071 5.27423 5.73175C5.66319 5.34279 6.19074 5.12427 6.74082 5.12427H21.2593ZM20.7408 21.1983V15.702C20.7408 14.8054 20.3846 13.9455 19.7506 13.3115C19.1166 12.6775 18.2567 12.3213 17.3601 12.3213C16.4786 12.3213 15.4519 12.8606 14.9542 13.6695V12.5183H12.0608V21.1983H14.9542V16.0857C14.9542 15.2872 15.5971 14.6339 16.3956 14.6339C16.7807 14.6339 17.15 14.7869 17.4223 15.0591C17.6945 15.3314 17.8475 15.7007 17.8475 16.0857V21.1983H20.7408ZM8.69045 10.8902C9.15252 10.8902 9.59566 10.7066 9.92239 10.3799C10.2491 10.0532 10.4327 9.61004 10.4327 9.14797C10.4327 8.18353 9.6549 7.39538 8.69045 7.39538C8.22564 7.39538 7.77986 7.58003 7.45118 7.9087C7.12251 8.23738 6.93786 8.68315 6.93786 9.14797C6.93786 10.1124 7.72601 10.8902 8.69045 10.8902ZM10.1319 21.1983V12.5183H7.25934V21.1983H10.1319Z" fill="white"/>
</svg>
