<svg width="28" height="29" viewBox="0 0 28 29" fill="none" xmlns="http://www.w3.org/2000/svg">
<path d="M14.0001 5.12427C8.84805 5.12427 4.66672 9.3056 4.66672 14.4576C4.66672 19.6096 8.84805 23.7909 14.0001 23.7909C19.1521 23.7909 23.3334 19.6096 23.3334 14.4576C23.3334 9.3056 19.1521 5.12427 14.0001 5.12427ZM18.3307 11.4709C18.1907 12.9456 17.5841 16.5296 17.2761 18.1816C17.1454 18.8816 16.8841 19.1149 16.6414 19.1429C16.1 19.1896 15.6894 18.7883 15.1667 18.4429C14.3454 17.9016 13.8787 17.5656 13.0854 17.0429C12.1614 16.4363 12.7587 16.1003 13.2907 15.5589C13.4307 15.4189 15.8201 13.2443 15.8667 13.0483C15.8732 13.0186 15.8723 12.9878 15.8642 12.9585C15.8561 12.9292 15.8409 12.9024 15.8201 12.8803C15.7641 12.8336 15.6894 12.8523 15.6241 12.8616C15.54 12.8803 14.2334 13.7483 11.6854 15.4656C11.3121 15.7176 10.976 15.8483 10.6774 15.8389C10.3414 15.8296 9.70672 15.6523 9.23072 15.4936C8.64272 15.3069 8.18538 15.2043 8.22272 14.8776C8.24138 14.7096 8.47472 14.5416 8.91338 14.3643C11.6387 13.1789 13.4494 12.3949 14.3547 12.0216C16.9494 10.9389 17.4814 10.7523 17.8361 10.7523C17.9107 10.7523 18.088 10.7709 18.2001 10.8643C18.2934 10.9389 18.3214 11.0416 18.3307 11.1163C18.3214 11.1723 18.34 11.3403 18.3307 11.4709Z" fill="white"/>
</svg>
