<svg width="28" height="29" viewBox="0 0 28 29" fill="none" xmlns="http://www.w3.org/2000/svg">
<path d="M12.1334 16.7909L16.9774 13.9909L12.1334 11.1909V16.7909ZM22.9227 9.48285C23.0441 9.92152 23.128 10.5095 23.184 11.2562C23.2494 12.0029 23.2774 12.6469 23.2774 13.2069L23.3334 13.9909C23.3334 16.0349 23.184 17.5375 22.9227 18.4989C22.6894 19.3389 22.1481 19.8802 21.3081 20.1135C20.8694 20.2349 20.0667 20.3189 18.8347 20.3749C17.6214 20.4402 16.5107 20.4682 15.4841 20.4682L14.0001 20.5242C10.0894 20.5242 7.65338 20.3749 6.69205 20.1135C5.85205 19.8802 5.31072 19.3389 5.07738 18.4989C4.95605 18.0602 4.87205 17.4722 4.81605 16.7255C4.75072 15.9789 4.72272 15.3349 4.72272 14.7749L4.66672 13.9909C4.66672 11.9469 4.81605 10.4442 5.07738 9.48285C5.31072 8.64285 5.85205 8.10152 6.69205 7.86819C7.13072 7.74685 7.93338 7.66285 9.16538 7.60685C10.3787 7.54152 11.4894 7.51352 12.5161 7.51352L14.0001 7.45752C17.9107 7.45752 20.3467 7.60685 21.3081 7.86819C22.1481 8.10152 22.6894 8.64285 22.9227 9.48285Z" fill="white"/>
</svg>
